# xmcd
#
# Track frame offsets:
#	150
#	64310
#	167909
#	216005
#	240467
#	275606
#
# Disc length: 4182 seconds
#
# Revision: 1
# Processed by: cddbd v1.5PL3 Copyright (c) Steve Scherf et al.
# Submitted via: audiograbber 1.82.01
#
DISCID=56105406
DTITLE=Jimi Hendrix - 1970-01-23 - Studio C Record Plant NY, NY
DYEAR=1900
DGENRE=
TTITLE0=Jimi Hendrix - Blue Suede Shoes-Jam Session
TTITLE1=Jimi Hendrix - Jam Session-Highway of Desire
TTITLE2=Jimi Hendrix - Country Blues-Astro Man
TTITLE3=Jimi Hendrix - Once I Had a Woman
TTITLE4=Jimi Hendrix - Once I Had a Woman
TTITLE5=Jimi Hendrix - Country Blues
EXTD=
EXTT0=
EXTT1=
EXTT2=
EXTT3=
EXTT4=
EXTT5=
PLAYORDER=
